<svg width="2000" height="904" viewBox="0 0 2000 904" fill="none" xmlns="http://www.w3.org/2000/svg">
<rect y="4" width="2000" height="900" fill="black"/>
<path d="M1190.57 678.837L1158.87 749.941L1230.43 850.431L1301.41 834.509L1342.4 770.695L1270.85 670.205L1190.57 678.837Z" stroke="white" stroke-opacity="0.29" stroke-width="10"/>
<path d="M293 58L294 200" stroke="#FF8000" stroke-width="7" stroke-linecap="round"/>
<path d="M109 174L112 200" stroke="#FF8000" stroke-width="7" stroke-linecap="round"/>
<path d="M364 174V200" stroke="#FF8000" stroke-width="7" stroke-linecap="round"/>
<path d="M348 148V200" stroke="#FF8000" stroke-width="7" stroke-linecap="round"/>
<path d="M327 116L328 200" stroke="#FF8000" stroke-width="7" stroke-linecap="round"/>
<path d="M311 87V200" stroke="#FF8000" stroke-width="7" stroke-linecap="round"/>
<path d="M130 148L129 200" stroke="#FF8000" stroke-width="7" stroke-linecap="round"/>
<path d="M275 32V200" stroke="#FF8000" stroke-width="7" stroke-linecap="round"/>
<path d="M256 4L257 200" stroke="#FF8000" stroke-width="7" stroke-linecap="round"/>
<path d="M236 4L238 200" stroke="#FF8000" stroke-width="7" stroke-linecap="round"/>
<path d="M218 4L220 200" stroke="#FF8000" stroke-width="7" stroke-linecap="round"/>
<path d="M201 32V200" stroke="#FF8000" stroke-width="7" stroke-linecap="round"/>
<path d="M183 58V200" stroke="#FF8000" stroke-width="7" stroke-linecap="round"/>
<path d="M167 87L166 200" stroke="#FF8000" stroke-width="7" stroke-linecap="round"/>
<path d="M149 116L148 200" stroke="#FF8000" stroke-width="7" stroke-linecap="round"/>
<path d="M1039.5 15C1288.5 28 1292.5 332 1039.5 371.5" stroke="#FFBB7C" stroke-opacity="0.29" stroke-width="14" stroke-linecap="round"/>
<path d="M1043 87C1187.17 94.5119 1189.49 270.175 1043 293" stroke="white" stroke-opacity="0.45" stroke-width="14" stroke-linecap="round"/>
<circle cx="738" cy="107" r="17" fill="#FFBB7C" fill-opacity="0.71" stroke="#FF8000" stroke-width="8"/>
<circle cx="738" cy="190" r="17" fill="#FFBB7C" fill-opacity="0.71" stroke="#FF8000" stroke-width="8"/>
<circle cx="738" cy="273" r="17" fill="#FFBB7C" fill-opacity="0.71" stroke="#FF8000" stroke-width="8"/>
<path d="M1484 32L1454 59.5" stroke="#FFBB7C" stroke-opacity="0.66" stroke-width="5"/>
<path d="M1874 32L1844 59.5" stroke="#FFBB7C" stroke-opacity="0.66" stroke-width="5"/>
<path d="M1834 32L1804 59.5" stroke="#FFBB7C" stroke-opacity="0.66" stroke-width="5"/>
<path d="M1794 32L1764 59.5" stroke="#FFBB7C" stroke-opacity="0.66" stroke-width="5"/>
<path d="M1754 32L1724 59.5" stroke="#FFBB7C" stroke-opacity="0.66" stroke-width="5"/>
<path d="M1714 32L1684 59.5" stroke="#FFBB7C" stroke-opacity="0.66" stroke-width="5"/>
<path d="M1524 32L1494 59.5" stroke="#FFBB7C" stroke-opacity="0.66" stroke-width="5"/>
<path d="M1444 32L1414 59.5" stroke="#FFBB7C" stroke-opacity="0.66" stroke-width="5"/>
<path d="M1674 32L1644 59.5" stroke="#FFBB7C" stroke-opacity="0.66" stroke-width="5"/>
<path d="M1634 32L1604 59.5" stroke="#FFBB7C" stroke-opacity="0.66" stroke-width="5"/>
<path d="M1594 32L1564 59.5" stroke="#FFBB7C" stroke-opacity="0.66" stroke-width="5"/>
<path d="M1554 32L1524 59.5" stroke="#FFBB7C" stroke-opacity="0.66" stroke-width="5"/>
<path d="M1409 285L1434 308.5" stroke="#FFBB7C" stroke-opacity="0.66" stroke-width="5"/>
<path d="M1434.5 284L1409 308" stroke="#FFBB7C" stroke-opacity="0.66" stroke-width="5"/>
<path d="M1409 342L1434 365.5" stroke="#FFBB7C" stroke-opacity="0.66" stroke-width="5"/>
<path d="M1434.5 341L1409 365" stroke="#FFBB7C" stroke-opacity="0.66" stroke-width="5"/>
<path d="M1408 401L1433 424.5" stroke="#FFBB7C" stroke-opacity="0.66" stroke-width="5"/>
<path d="M1433.5 400L1408 424" stroke="#FFBB7C" stroke-opacity="0.66" stroke-width="5"/>
<path d="M1409 461L1434 484.5" stroke="#FFBB7C" stroke-opacity="0.66" stroke-width="5"/>
<path d="M1434.5 460L1409 484" stroke="#FFBB7C" stroke-opacity="0.66" stroke-width="5"/>
<circle cx="1657.5" cy="363.5" r="2.5" fill="white"/>
<circle cx="1873.5" cy="363.5" r="2.5" fill="white"/>
<circle cx="1849.5" cy="363.5" r="2.5" fill="white"/>
<circle cx="1825.5" cy="363.5" r="2.5" fill="white"/>
<circle cx="1801.5" cy="363.5" r="2.5" fill="white"/>
<circle cx="1777.5" cy="363.5" r="2.5" fill="white"/>
<circle cx="1753.5" cy="363.5" r="2.5" fill="white"/>
<circle cx="1729.5" cy="363.5" r="2.5" fill="white"/>
<circle cx="1705.5" cy="363.5" r="2.5" fill="white"/>
<circle cx="1681.5" cy="363.5" r="2.5" fill="white"/>
<circle cx="1885.5" cy="375.5" r="2.5" fill="white"/>
<circle cx="1645.5" cy="375.5" r="2.5" fill="white"/>
<circle cx="1861.5" cy="375.5" r="2.5" fill="white"/>
<circle cx="1837.5" cy="375.5" r="2.5" fill="white"/>
<circle cx="1813.5" cy="375.5" r="2.5" fill="white"/>
<circle cx="1789.5" cy="375.5" r="2.5" fill="white"/>
<circle cx="1765.5" cy="375.5" r="2.5" fill="white"/>
<circle cx="1741.5" cy="375.5" r="2.5" fill="white"/>
<circle cx="1717.5" cy="375.5" r="2.5" fill="white"/>
<circle cx="1693.5" cy="375.5" r="2.5" fill="white"/>
<circle cx="1669.5" cy="375.5" r="2.5" fill="white"/>
<circle cx="1657.5" cy="388.5" r="2.5" fill="white"/>
<circle cx="1873.5" cy="388.5" r="2.5" fill="white"/>
<circle cx="1849.5" cy="388.5" r="2.5" fill="white"/>
<circle cx="1825.5" cy="388.5" r="2.5" fill="white"/>
<circle cx="1801.5" cy="388.5" r="2.5" fill="white"/>
<circle cx="1777.5" cy="388.5" r="2.5" fill="white"/>
<circle cx="1753.5" cy="388.5" r="2.5" fill="white"/>
<circle cx="1729.5" cy="388.5" r="2.5" fill="white"/>
<circle cx="1705.5" cy="388.5" r="2.5" fill="white"/>
<circle cx="1681.5" cy="388.5" r="2.5" fill="white"/>
<circle cx="1885.5" cy="400.5" r="2.5" fill="white"/>
<circle cx="1645.5" cy="400.5" r="2.5" fill="white"/>
<circle cx="1861.5" cy="400.5" r="2.5" fill="white"/>
<circle cx="1837.5" cy="400.5" r="2.5" fill="white"/>
<circle cx="1813.5" cy="400.5" r="2.5" fill="white"/>
<circle cx="1789.5" cy="400.5" r="2.5" fill="white"/>
<circle cx="1765.5" cy="400.5" r="2.5" fill="white"/>
<circle cx="1741.5" cy="400.5" r="2.5" fill="white"/>
<circle cx="1717.5" cy="400.5" r="2.5" fill="white"/>
<circle cx="1693.5" cy="400.5" r="2.5" fill="white"/>
<circle cx="1669.5" cy="400.5" r="2.5" fill="white"/>
<circle cx="1657.5" cy="412.5" r="2.5" fill="white"/>
<circle cx="1873.5" cy="412.5" r="2.5" fill="white"/>
<circle cx="1849.5" cy="412.5" r="2.5" fill="white"/>
<circle cx="1825.5" cy="412.5" r="2.5" fill="white"/>
<circle cx="1801.5" cy="412.5" r="2.5" fill="white"/>
<circle cx="1777.5" cy="412.5" r="2.5" fill="white"/>
<circle cx="1753.5" cy="412.5" r="2.5" fill="white"/>
<circle cx="1729.5" cy="412.5" r="2.5" fill="white"/>
<circle cx="1705.5" cy="412.5" r="2.5" fill="white"/>
<circle cx="1681.5" cy="412.5" r="2.5" fill="white"/>
<circle cx="1885.5" cy="424.5" r="2.5" fill="white"/>
<circle cx="1645.5" cy="424.5" r="2.5" fill="white"/>
<circle cx="1861.5" cy="424.5" r="2.5" fill="white"/>
<circle cx="1837.5" cy="424.5" r="2.5" fill="white"/>
<circle cx="1813.5" cy="424.5" r="2.5" fill="white"/>
<circle cx="1789.5" cy="424.5" r="2.5" fill="white"/>
<circle cx="1765.5" cy="424.5" r="2.5" fill="white"/>
<circle cx="1741.5" cy="424.5" r="2.5" fill="white"/>
<circle cx="1717.5" cy="424.5" r="2.5" fill="white"/>
<circle cx="1693.5" cy="424.5" r="2.5" fill="white"/>
<circle cx="1669.5" cy="424.5" r="2.5" fill="white"/>
<circle cx="1657.5" cy="439.5" r="2.5" fill="white"/>
<circle cx="1873.5" cy="439.5" r="2.5" fill="white"/>
<circle cx="1849.5" cy="439.5" r="2.5" fill="white"/>
<circle cx="1825.5" cy="439.5" r="2.5" fill="white"/>
<circle cx="1801.5" cy="439.5" r="2.5" fill="white"/>
<circle cx="1777.5" cy="439.5" r="2.5" fill="white"/>
<circle cx="1753.5" cy="439.5" r="2.5" fill="white"/>
<circle cx="1729.5" cy="439.5" r="2.5" fill="white"/>
<circle cx="1705.5" cy="439.5" r="2.5" fill="white"/>
<circle cx="1681.5" cy="439.5" r="2.5" fill="white"/>
<circle cx="1885.5" cy="451.5" r="2.5" fill="white"/>
<circle cx="1645.5" cy="451.5" r="2.5" fill="white"/>
<circle cx="1861.5" cy="451.5" r="2.5" fill="white"/>
<circle cx="1837.5" cy="451.5" r="2.5" fill="white"/>
<circle cx="1813.5" cy="451.5" r="2.5" fill="white"/>
<circle cx="1789.5" cy="451.5" r="2.5" fill="white"/>
<circle cx="1765.5" cy="451.5" r="2.5" fill="white"/>
<circle cx="1741.5" cy="451.5" r="2.5" fill="white"/>
<circle cx="1717.5" cy="451.5" r="2.5" fill="white"/>
<circle cx="1693.5" cy="451.5" r="2.5" fill="white"/>
<circle cx="1669.5" cy="451.5" r="2.5" fill="white"/>
<circle cx="1657.5" cy="463.5" r="2.5" fill="white"/>
<circle cx="1873.5" cy="463.5" r="2.5" fill="white"/>
<circle cx="1849.5" cy="463.5" r="2.5" fill="white"/>
<circle cx="1825.5" cy="463.5" r="2.5" fill="white"/>
<circle cx="1801.5" cy="463.5" r="2.5" fill="white"/>
<circle cx="1777.5" cy="463.5" r="2.5" fill="white"/>
<circle cx="1753.5" cy="463.5" r="2.5" fill="white"/>
<circle cx="1729.5" cy="463.5" r="2.5" fill="white"/>
<circle cx="1705.5" cy="463.5" r="2.5" fill="white"/>
<circle cx="1681.5" cy="463.5" r="2.5" fill="white"/>
<circle cx="1885.5" cy="475.5" r="2.5" fill="white"/>
<circle cx="1645.5" cy="475.5" r="2.5" fill="white"/>
<circle cx="1861.5" cy="475.5" r="2.5" fill="white"/>
<circle cx="1837.5" cy="475.5" r="2.5" fill="white"/>
<circle cx="1813.5" cy="475.5" r="2.5" fill="white"/>
<circle cx="1789.5" cy="475.5" r="2.5" fill="white"/>
<circle cx="1765.5" cy="475.5" r="2.5" fill="white"/>
<circle cx="1741.5" cy="475.5" r="2.5" fill="white"/>
<circle cx="1717.5" cy="475.5" r="2.5" fill="white"/>
<circle cx="1693.5" cy="475.5" r="2.5" fill="white"/>
<circle cx="1669.5" cy="475.5" r="2.5" fill="white"/>
<circle cx="1657.5" cy="487.5" r="2.5" fill="white"/>
<circle cx="1873.5" cy="487.5" r="2.5" fill="white"/>
<circle cx="1849.5" cy="487.5" r="2.5" fill="white"/>
<circle cx="1825.5" cy="487.5" r="2.5" fill="white"/>
<circle cx="1801.5" cy="487.5" r="2.5" fill="white"/>
<circle cx="1777.5" cy="487.5" r="2.5" fill="white"/>
<circle cx="1753.5" cy="487.5" r="2.5" fill="white"/>
<circle cx="1729.5" cy="487.5" r="2.5" fill="white"/>
<circle cx="1705.5" cy="487.5" r="2.5" fill="white"/>
<circle cx="1681.5" cy="487.5" r="2.5" fill="white"/>
<circle cx="1885.5" cy="499.5" r="2.5" fill="white"/>
<circle cx="1645.5" cy="499.5" r="2.5" fill="white"/>
<circle cx="1861.5" cy="499.5" r="2.5" fill="white"/>
<circle cx="1837.5" cy="499.5" r="2.5" fill="white"/>
<circle cx="1813.5" cy="499.5" r="2.5" fill="white"/>
<circle cx="1789.5" cy="499.5" r="2.5" fill="white"/>
<circle cx="1765.5" cy="499.5" r="2.5" fill="white"/>
<circle cx="1741.5" cy="499.5" r="2.5" fill="white"/>
<circle cx="1717.5" cy="499.5" r="2.5" fill="white"/>
<circle cx="1693.5" cy="499.5" r="2.5" fill="white"/>
<circle cx="1669.5" cy="499.5" r="2.5" fill="white"/>
<circle cx="1657.5" cy="511.5" r="2.5" fill="white"/>
<circle cx="1873.5" cy="511.5" r="2.5" fill="white"/>
<circle cx="1849.5" cy="511.5" r="2.5" fill="white"/>
<circle cx="1825.5" cy="511.5" r="2.5" fill="white"/>
<circle cx="1801.5" cy="511.5" r="2.5" fill="white"/>
<circle cx="1777.5" cy="511.5" r="2.5" fill="white"/>
<circle cx="1753.5" cy="511.5" r="2.5" fill="white"/>
<circle cx="1729.5" cy="511.5" r="2.5" fill="white"/>
<circle cx="1705.5" cy="511.5" r="2.5" fill="white"/>
<circle cx="1681.5" cy="511.5" r="2.5" fill="white"/>
<circle cx="1885.5" cy="523.5" r="2.5" fill="white"/>
<circle cx="1645.5" cy="523.5" r="2.5" fill="white"/>
<circle cx="1861.5" cy="523.5" r="2.5" fill="white"/>
<circle cx="1837.5" cy="523.5" r="2.5" fill="white"/>
<circle cx="1813.5" cy="523.5" r="2.5" fill="white"/>
<circle cx="1789.5" cy="523.5" r="2.5" fill="white"/>
<circle cx="1765.5" cy="523.5" r="2.5" fill="white"/>
<circle cx="1741.5" cy="523.5" r="2.5" fill="white"/>
<circle cx="1717.5" cy="523.5" r="2.5" fill="white"/>
<circle cx="1693.5" cy="523.5" r="2.5" fill="white"/>
<circle cx="1669.5" cy="523.5" r="2.5" fill="white"/>
<circle cx="1660.5" cy="535.5" r="2.5" fill="white"/>
<circle cx="1876.5" cy="535.5" r="2.5" fill="white"/>
<circle cx="1852.5" cy="535.5" r="2.5" fill="white"/>
<circle cx="1828.5" cy="535.5" r="2.5" fill="white"/>
<circle cx="1804.5" cy="535.5" r="2.5" fill="white"/>
<circle cx="1780.5" cy="535.5" r="2.5" fill="white"/>
<circle cx="1756.5" cy="535.5" r="2.5" fill="white"/>
<circle cx="1732.5" cy="535.5" r="2.5" fill="white"/>
<circle cx="1708.5" cy="535.5" r="2.5" fill="white"/>
<circle cx="1684.5" cy="535.5" r="2.5" fill="white"/>
<circle cx="1888.5" cy="547.5" r="2.5" fill="white"/>
<circle cx="1648.5" cy="547.5" r="2.5" fill="white"/>
<circle cx="1864.5" cy="547.5" r="2.5" fill="white"/>
<circle cx="1840.5" cy="547.5" r="2.5" fill="white"/>
<circle cx="1816.5" cy="547.5" r="2.5" fill="white"/>
<circle cx="1792.5" cy="547.5" r="2.5" fill="white"/>
<circle cx="1768.5" cy="547.5" r="2.5" fill="white"/>
<circle cx="1744.5" cy="547.5" r="2.5" fill="white"/>
<circle cx="1720.5" cy="547.5" r="2.5" fill="white"/>
<circle cx="1696.5" cy="547.5" r="2.5" fill="white"/>
<circle cx="1672.5" cy="547.5" r="2.5" fill="white"/>
<circle cx="1660.5" cy="559.5" r="2.5" fill="white"/>
<circle cx="1876.5" cy="559.5" r="2.5" fill="white"/>
<circle cx="1852.5" cy="559.5" r="2.5" fill="white"/>
<circle cx="1828.5" cy="559.5" r="2.5" fill="white"/>
<circle cx="1804.5" cy="559.5" r="2.5" fill="white"/>
<circle cx="1780.5" cy="559.5" r="2.5" fill="white"/>
<circle cx="1756.5" cy="559.5" r="2.5" fill="white"/>
<circle cx="1732.5" cy="559.5" r="2.5" fill="white"/>
<circle cx="1708.5" cy="559.5" r="2.5" fill="white"/>
<circle cx="1684.5" cy="559.5" r="2.5" fill="white"/>
<circle cx="1888.5" cy="571.5" r="2.5" fill="white"/>
<circle cx="1648.5" cy="571.5" r="2.5" fill="white"/>
<circle cx="1864.5" cy="571.5" r="2.5" fill="white"/>
<circle cx="1840.5" cy="571.5" r="2.5" fill="white"/>
<circle cx="1816.5" cy="571.5" r="2.5" fill="white"/>
<circle cx="1792.5" cy="571.5" r="2.5" fill="white"/>
<circle cx="1768.5" cy="571.5" r="2.5" fill="white"/>
<circle cx="1744.5" cy="571.5" r="2.5" fill="white"/>
<circle cx="1720.5" cy="571.5" r="2.5" fill="white"/>
<circle cx="1696.5" cy="571.5" r="2.5" fill="white"/>
<circle cx="1672.5" cy="571.5" r="2.5" fill="white"/>
<circle cx="1659.5" cy="583.5" r="2.5" fill="white"/>
<circle cx="1875.5" cy="583.5" r="2.5" fill="white"/>
<circle cx="1851.5" cy="583.5" r="2.5" fill="white"/>
<circle cx="1827.5" cy="583.5" r="2.5" fill="white"/>
<circle cx="1803.5" cy="583.5" r="2.5" fill="white"/>
<circle cx="1779.5" cy="583.5" r="2.5" fill="white"/>
<circle cx="1755.5" cy="583.5" r="2.5" fill="white"/>
<circle cx="1731.5" cy="583.5" r="2.5" fill="white"/>
<circle cx="1707.5" cy="583.5" r="2.5" fill="white"/>
<circle cx="1683.5" cy="583.5" r="2.5" fill="white"/>
<circle cx="1887.5" cy="595.5" r="2.5" fill="white"/>
<circle cx="1647.5" cy="595.5" r="2.5" fill="white"/>
<circle cx="1863.5" cy="595.5" r="2.5" fill="white"/>
<circle cx="1839.5" cy="595.5" r="2.5" fill="white"/>
<circle cx="1815.5" cy="595.5" r="2.5" fill="white"/>
<circle cx="1791.5" cy="595.5" r="2.5" fill="white"/>
<circle cx="1767.5" cy="595.5" r="2.5" fill="white"/>
<circle cx="1743.5" cy="595.5" r="2.5" fill="white"/>
<circle cx="1719.5" cy="595.5" r="2.5" fill="white"/>
<circle cx="1695.5" cy="595.5" r="2.5" fill="white"/>
<circle cx="1671.5" cy="595.5" r="2.5" fill="white"/>
<path d="M594 664L680.603 814H507.397L594 664Z" fill="#FFBB7C" fill-opacity="0.1"/>
<circle cx="359" cy="381" r="7" fill="white"/>
<circle cx="501" cy="427" r="7" fill="white"/>
<circle cx="454" cy="427" r="7" fill="white"/>
<circle cx="406" cy="427" r="7" fill="white"/>
<circle cx="406" cy="381" r="7" fill="white"/>
<circle cx="358" cy="427" r="7" fill="white"/>
<circle cx="501" cy="379" r="7" fill="white"/>
<circle cx="454" cy="379" r="7" fill="white"/>
<circle cx="501" cy="523" r="7" fill="white"/>
<circle cx="454" cy="523" r="7" fill="white"/>
<circle cx="406" cy="523" r="7" fill="white"/>
<circle cx="406" cy="477" r="7" fill="white"/>
<circle cx="358" cy="477" r="7" fill="white"/>
<circle cx="358" cy="523" r="7" fill="white"/>
<circle cx="501" cy="475" r="7" fill="white"/>
<circle cx="454" cy="475" r="7" fill="white"/>
</svg>
